# xmcd
#
# Track frame offsets: 
#        150
#        16530
#        31085
#        52724
#        77722
#        93654
#        109651
#        120778
#        133457
#        157415
#
# Disc length: 2368 seconds
#
# Revision: 2
# Processed by: cddbd v1.5.2PL0 Copyright (c) Steve Scherf et al.
# Submitted via: ExactAudioCopyFreeDBPlugin 1.0
#
DISCID=71093e0a
DTITLE=Guido Belcanto - Ik Zou Mijn Hart Willen Weggeven {2011,RE,Evil
DTITLE=Penguin Records,2008 EPR 0046}
DYEAR=2008
DGENRE=Chanson
TTITLE0=Op De Pechstrook Van Het Leven
TTITLE1=Madam Louise
TTITLE2=Hallo Goeiedag
TTITLE3=Aanbid Me Dan
TTITLE4=Waarom Altijd Dat Katholieke Denken ?
TTITLE5=Too Busy Loving Myself
TTITLE6=Mijn Vrouw Is Ervandoor
TTITLE7=Half Een Man En Half Een Vrouw
TTITLE8=La Pasionaria
TTITLE9=Ik Zou Mijn Hart Willen Weggeven
EXTD=
EXTT0=
EXTT1=
EXTT2=
EXTT3=
EXTT4=
EXTT5=
EXTT6=
EXTT7=
EXTT8=
EXTT9=
PLAYORDER=
